# xmcd
#
# Track frame offsets:
# 150
# 17456
# 42725
# 59814
# 82041
# 99396
# 119409
# 149071
# 170657
# 192640
# 209479
#
# Disc length: 3509 seconds
#
#
# Revision: 0
# Processed by: cddbd v1.5PL3 Copyright (c) Steve Scherf et al.
# Submitted via: FreeRIP 2.60 
#
DISCID=b00db30b
DTITLE=Urublues - Fuído
DYEAR=2002
DGENRE=Bluegrass
TTITLE0=O Trem
TTITLE1=Valão da Morte
TTITLE2=+ Um Ano
TTITLE3=Elvira
TTITLE4=A Velha Dúvida
TTITLE5=Noite
TTITLE6=Vodka and Blues
TTITLE7=Olhos Vidrados
TTITLE8=Ser Feliz
TTITLE9=Bebe Bem
TTITLE10=Fluído
EXTD=
EXTT0=
EXTT1=
EXTT2=
EXTT3=
EXTT4=
EXTT5=
EXTT6=
EXTT7=
EXTT8=
EXTT9=
EXTT10=
PLAYORDER=
